<?xml version="1.0" encoding="UTF-8"?><svg width="98" height="63" viewBox="0 0 98 63" fill="none" xmlns="http://www.w3.org/2000/svg">
<path fill-rule="evenodd" clip-rule="evenodd" d="M69.4822 37.1546C69.4313 36.3916 69.4022 35.6261 69.3245 34.8659C69.1719 33.3803 68.841 31.9364 68.2228 30.5683C67.9488 29.962 67.6174 29.3883 67.2069 28.8627C67.1306 28.765 67.0478 28.6724 66.9537 28.5604C66.8319 28.672 66.8557 28.802 66.846 28.9168C66.6919 30.6889 66.1636 32.3404 65.2203 33.8518C64.2501 35.4058 62.9241 36.5707 61.2733 37.3688C61.2222 37.3937 61.1691 37.4136 61.0379 37.4696C61.9621 36.21 62.6145 34.9189 62.6632 33.3581C62.588 33.3833 62.5422 33.3866 62.513 33.4103C60.9797 34.6559 59.22 35.4733 57.366 36.1077C55.6471 36.6958 53.8778 37.0667 52.0747 37.2871C50.604 37.4664 49.1289 37.5465 47.6481 37.5402C47.5921 37.54 47.5364 37.5402 47.4585 37.4867C47.5533 37.4421 47.6464 37.3946 47.7425 37.3535C49.8853 36.4331 51.7922 35.1693 53.3956 33.4708C54.8929 31.8846 55.9496 30.0506 56.4855 27.9297C56.5047 27.8538 56.5308 27.7797 56.5784 27.6253C56.6681 27.8099 56.7383 27.9333 56.7895 28.064C57.1303 28.9325 57.2149 29.8413 57.1558 30.7599C57.114 31.4081 57.0066 32.0522 56.9297 32.6983C56.9205 32.775 56.92 32.8528 56.9099 33.0175C57.0633 32.8649 57.1692 32.7696 57.2636 32.6645C58.3256 31.4827 59.0199 30.1064 59.4153 28.5767C59.9364 26.5615 59.8541 24.5466 59.3854 22.5358C59.1752 21.6329 58.8908 20.7528 58.5413 19.8939C58.4956 19.781 58.4548 19.666 58.4364 19.5338C59.6965 20.4015 60.6992 21.5076 61.5009 22.7995C62.3 24.0868 62.8142 25.4833 63.0762 27.0532C63.1207 26.9422 63.1436 26.9023 63.1519 26.8594C63.1636 26.8038 63.1676 26.7458 63.1676 26.689C63.1706 25.729 63.2034 24.7679 63.1653 23.8094C63.1156 22.5424 63.0482 21.2742 62.9229 20.0127C62.4894 15.6447 61.582 11.392 59.706 7.38749C58.8327 5.52368 57.7489 3.79402 56.3814 2.2473C56.3452 2.2065 56.3132 2.16191 56.2241 2.04843C56.4585 2.08562 56.6212 2.10593 56.7814 2.13743C59.7136 2.71904 62.4401 3.82628 64.9865 5.37453C69.5825 8.16873 72.9628 12.0527 75.2955 16.866C76.6301 19.6186 77.5285 22.5139 78.116 25.5091C78.5214 27.5752 78.7694 29.6603 78.9 31.7609C79.0021 33.4052 79.0173 35.05 78.999 36.696C78.9981 36.7724 78.9855 36.8483 78.9248 36.9369C78.8922 36.8383 78.8561 36.7411 78.8277 36.6415C78.1345 34.1733 77.1579 31.8286 75.7603 29.669C74.9224 28.3748 73.9444 27.1993 72.7507 26.2116C72.1927 25.7505 71.599 25.3427 70.9611 24.9998C70.8625 24.9468 70.7591 24.9022 70.5944 24.8231C70.6085 25.0009 70.6112 25.13 70.6298 25.2565C70.9245 27.22 70.9946 29.1942 70.8745 31.1726C70.7587 33.0742 70.4307 34.9378 69.7165 36.7183C69.6541 36.8736 69.5856 37.0263 69.5195 37.1808C69.5071 37.1717 69.4946 37.1633 69.4822 37.1546Z" fill="white"/>
<path fill-rule="evenodd" clip-rule="evenodd" d="M55.6336 3.16311C54.2329 7.52814 51.7602 11.1324 47.8996 13.8462C49.073 13.8651 50.1562 13.7219 51.2338 13.5498C52.3152 13.3775 53.3903 13.1621 54.5482 12.9509C54.3858 13.0769 54.2824 13.1617 54.1741 13.2401C52.6143 14.3691 50.8652 15.0566 48.9778 15.3849C47.7253 15.6024 46.4622 15.7606 45.2027 15.9352C44.0672 16.0929 42.935 16.2658 41.8232 16.5506C41.7347 16.5732 41.6457 16.5969 41.5578 16.6225C40.01 17.0715 39.158 18.1076 38.9688 19.6915C38.8471 20.7099 38.9499 21.7198 39.1146 22.7912C39.3269 22.5793 39.4946 22.3891 39.6859 22.2269C39.895 22.0496 40.1172 21.8847 40.3496 21.7401C40.5724 21.6016 40.8107 21.4853 41.0512 21.3785C41.289 21.2724 41.5376 21.1902 41.8068 21.1433C41.7421 21.1942 41.6791 21.2471 41.6126 21.2959C41.2166 21.5855 40.9215 21.9606 40.6828 22.3834C40.2382 23.1707 40.0065 24.0283 39.8504 24.9099C39.7349 25.5636 39.6637 26.2194 39.7019 26.887C39.7181 27.1697 39.6903 27.4582 39.6545 27.7405C39.4963 28.9857 38.7957 29.663 37.5451 29.792C37.3855 29.8085 37.2241 29.8091 37.0648 29.8277C36.3963 29.9053 35.7943 29.7265 35.2356 29.3696C34.612 28.9715 34.0799 28.4705 33.5914 27.9206C33.4275 27.7361 33.2733 27.5434 33.152 27.312C33.2476 27.3652 33.3431 27.4187 33.4389 27.4716C34.2041 27.895 34.9957 28.253 35.8661 28.4005C36.0908 28.4384 36.3213 28.4532 36.5496 28.4589C36.9341 28.4682 37.226 28.284 37.4665 27.9969C37.5832 27.8578 37.6083 27.7308 37.5131 27.5646C37.3218 27.2312 37.0866 26.9428 36.7598 26.7342C36.684 26.6858 36.6052 26.6418 36.5328 26.5369C36.6398 26.5369 36.7476 26.5452 36.8536 26.5352C37.104 26.5114 37.3572 26.4968 37.6026 26.4462C37.931 26.3786 37.9556 26.3395 37.9413 26.0061C37.9059 25.186 37.7022 24.4047 37.3684 23.6561C37.3081 23.5205 37.2477 23.3831 37.1706 23.2569C36.6191 22.3569 36.4051 21.3578 36.2908 20.3272C36.1871 19.3926 36.1964 18.4564 36.229 17.519C36.233 17.3958 36.2294 17.2719 36.2294 17.1548C35.7532 17.0324 35.3686 17.1747 35.1723 17.5717C34.9142 18.0935 34.6686 18.6222 34.4458 19.16C34.3423 19.4095 34.3059 19.687 34.232 19.9788C33.9986 19.687 33.9211 19.3152 33.7232 18.982C33.6698 19.0088 33.6186 19.0256 33.5771 19.0564C33.1823 19.348 32.7335 19.5205 32.2582 19.6139C32.055 19.6539 31.9415 19.7515 31.8481 19.9249C31.6143 20.3589 31.3841 20.7919 31.2815 21.2796C31.2756 21.3079 31.2499 21.3322 31.2097 21.3959C31.0717 21.1151 30.9405 20.8635 30.8236 20.6058C30.7111 20.3576 30.6132 20.1031 30.491 19.8082C30.1238 19.8577 29.7613 19.8957 29.403 19.9581C29.1315 20.0057 28.9712 20.1799 28.8893 20.4502C28.709 21.0456 28.7069 21.6517 28.8116 22.2496C28.9099 22.8098 29.0808 23.3575 29.221 23.9102C29.2453 24.007 29.2762 24.1023 29.3194 24.2514C29.2056 24.193 29.1366 24.1658 29.0763 24.1258C28.4246 23.6909 27.9117 23.1267 27.5563 22.4318C27.3537 22.0358 27.1917 21.6193 27.0102 21.2122C26.7361 20.5972 26.4776 19.9742 26.1823 19.3693C25.5896 18.1552 25.0904 16.9039 24.6335 15.6345C24.6223 15.6033 24.6194 15.5692 24.6074 15.5105C24.6779 15.5047 24.7413 15.4885 24.8016 15.4957C25.9679 15.6362 27.0847 15.4176 28.176 15.0284C29.3952 14.5938 30.5011 13.9484 31.545 13.194C33.3104 11.9182 34.8514 10.4058 36.2396 8.73463C36.319 8.63899 36.3984 8.54335 36.4881 8.43538C36.6307 8.48718 36.7584 8.53272 36.8854 8.58054C37.9367 8.976 38.999 9.3299 40.1057 9.55002C40.9025 9.70828 41.5395 9.52383 42.0648 8.88776C42.5845 8.25852 43.0416 7.59038 43.4513 6.88808C43.7101 6.44499 43.9545 5.99356 44.2325 5.55142C44.2321 5.93966 44.1278 6.31273 44.0547 6.68921C43.981 7.07025 43.8991 7.45015 43.8167 7.82947C43.7318 8.22019 43.6431 8.61014 43.5532 8.99953C43.467 9.3743 43.3773 9.74813 43.2733 10.1895C43.5174 10.151 43.7072 10.1354 43.8896 10.0899C44.5274 9.93106 45.0955 9.62877 45.5353 9.14375C46.011 8.61906 46.4739 8.07787 46.8904 7.50613C48.0314 5.94118 48.9928 4.26371 49.9223 2.56822C49.9769 2.4684 50.0315 2.36859 50.126 2.27029C50.1212 2.33823 50.1199 2.40692 50.1109 2.4741C50.1001 2.55322 50.0849 2.63179 50.0677 2.70978C49.7532 4.15536 49.2508 5.54193 48.697 6.90801C48.1258 8.31602 47.5092 9.70581 46.9125 11.1034C46.8649 11.2153 46.8164 11.3265 46.7682 11.4379C46.7846 11.456 46.8008 11.4738 46.8173 11.4916C46.9255 11.4412 47.0353 11.3935 47.1417 11.3394C48.5115 10.6442 49.7246 9.72858 50.8506 8.69421C52.5709 7.11351 54.0483 5.32617 55.3646 3.40278C55.4285 3.30979 55.4946 3.21833 55.5595 3.1263C55.5848 3.13882 55.6092 3.15097 55.6336 3.16311ZM36.8824 11.1231C35.7958 12.3175 34.5698 13.341 33.4012 14.423C33.4132 14.4464 33.4254 14.4695 33.4374 14.4929C34.2901 14.36 35.1432 14.2272 35.9937 14.0947C36.2973 13.0795 36.5897 12.1015 36.8824 11.1231Z" fill="white"/>
<path fill-rule="evenodd" clip-rule="evenodd" d="M33.6406 37.5133C33.7156 37.1256 33.7689 36.7774 33.8516 36.436C34.2797 34.6693 35.2181 33.208 36.5504 31.985C37.4498 31.1596 38.4467 30.4664 39.5197 29.8906C40.4779 29.3764 41.4572 28.9007 42.4369 28.4278C43.8394 27.7505 45.1575 26.9534 46.2505 25.83C47.0196 25.0393 47.6302 24.1516 47.8857 23.0576C48.2327 21.5724 47.6195 20.2256 46.2295 19.5888C45.0478 19.0472 43.7896 18.7943 42.4814 18.8989C41.8635 18.9484 41.2822 19.1404 40.8367 19.5934C40.6168 19.8173 40.4539 20.097 40.2587 20.3604C40.2507 20.3268 40.2279 20.2727 40.2269 20.2182C40.2149 19.5734 40.4746 19.0433 40.9294 18.6C41.2866 18.2518 41.7102 18.0034 42.1635 17.8015C42.9669 17.4432 43.8155 17.2525 44.6838 17.1533C46.0161 17.0007 47.3524 17.007 48.6413 17.3948C51.2916 18.193 53.1319 19.8268 53.7405 22.61C53.9402 23.5225 54.0286 24.459 54.1628 25.3854C54.1906 25.5746 54.1978 25.7668 54.2189 26.0114C53.8092 25.5668 53.4348 25.1607 53.0603 24.7544C53.0388 24.7645 53.0174 24.7742 52.9963 24.7842C52.9963 24.8425 52.9847 24.9036 52.998 24.9584C53.2225 25.875 53.176 26.7978 53.0416 27.7179C52.8745 28.8635 52.5514 29.9711 52.1651 31.0609C52.1468 31.1125 52.1209 31.1613 52.0699 31.2125C52.0661 30.254 52.0787 29.2963 51.5949 28.4168C51.1534 30.6288 50.2571 32.6048 48.7342 34.2792C48.9533 33.6052 49.1814 32.9376 49.2395 32.2277C49.2503 32.0937 49.2522 31.9588 49.261 31.7672C49.1424 31.8343 49.058 31.8628 48.9998 31.9186C48.5535 32.345 48.0823 32.7501 47.6768 33.2126C46.9039 34.0946 46.6942 35.1549 46.8408 36.2914C46.8928 36.6948 47.0105 37.0901 47.1036 37.5133H33.6406Z" fill="white"/>
<path fill-rule="evenodd" clip-rule="evenodd" d="M94.7828 35.7751C94.5214 35.887 94.2634 36.007 93.9978 36.1075C93.867 36.1569 93.8236 36.2428 93.8168 36.365C93.8078 36.5131 93.7983 36.6615 93.7939 36.8097C93.7768 37.4254 93.752 38.041 93.7475 38.657C93.7347 40.3707 93.7317 42.085 93.7223 43.799C93.7084 46.3805 93.6907 48.962 93.6774 51.5437C93.6673 53.5088 93.6645 55.4747 93.6513 57.4401C93.6489 57.7807 93.6108 58.1215 93.5856 58.523C93.5085 58.4321 93.4474 58.3777 93.4076 58.3109C92.8188 57.3186 92.2208 56.3313 91.6481 55.3298C89.7321 51.9777 87.8266 48.6197 85.9136 45.2659C85.3019 44.1941 84.6799 43.1288 84.0608 42.0618C83.9947 41.9479 83.9167 41.8417 83.8443 41.7318C83.8224 41.7392 83.8007 41.7464 83.7788 41.754C83.7788 42.1123 83.7758 42.4705 83.7805 42.829C83.7826 42.9764 83.8093 43.1237 83.8108 43.2713C83.8215 44.0822 83.8215 44.8936 83.8373 45.7044C83.8517 46.457 83.8755 47.2098 83.906 47.9618C83.9458 48.9413 83.9894 49.9207 84.045 50.8993C84.0732 51.3985 84.132 51.8961 84.179 52.4149C84.7941 52.6323 85.3952 52.8456 85.9964 53.0582C83.5452 53.1314 81.0998 53.0361 78.6347 52.9984C78.9056 52.8669 79.1758 52.7346 79.4474 52.605C79.5301 52.5659 79.6131 52.5196 79.7012 52.5014C80.0348 52.4314 80.1142 52.1957 80.13 51.8989C80.1791 50.9657 80.2486 50.0332 80.2861 49.0996C80.3438 47.6755 80.3837 46.25 80.426 44.8251C80.4538 43.8901 80.4707 42.9548 80.4957 42.0193C80.5155 41.2783 80.5416 40.5373 80.5619 39.7963C80.5678 39.5923 80.5631 39.3879 80.5631 39.1733C79.9141 38.9592 79.2873 38.7528 78.6128 38.5302C78.7569 38.4207 78.8805 38.4571 78.9905 38.4568C80.4698 38.4543 81.9489 38.4607 83.4281 38.452C84.0221 38.4486 84.6156 38.4129 85.2332 38.3911C85.481 38.8097 85.7194 39.2241 85.9692 39.631C87.2552 41.7242 88.5434 43.8163 89.8345 45.9061C89.9324 46.0646 90.0586 46.2056 90.2309 46.3278C90.2433 46.1384 90.2648 45.9488 90.2665 45.7591C90.2842 43.8406 90.308 41.9218 90.3101 40.0031C90.3111 39.1021 90.2758 38.2008 90.2404 37.3C90.2286 36.9941 90.1618 36.6907 90.1292 36.3852C90.1108 36.2127 90.0209 36.1333 89.8593 36.0777C89.3833 35.914 88.9136 35.7316 88.4425 35.5553C88.3922 35.5364 88.3444 35.5108 88.305 35.4322H94.7828V35.7751Z" fill="white"/>
<path fill-rule="evenodd" clip-rule="evenodd" d="M23.9043 50.2304C24.0443 50.7687 24.2552 51.2395 24.5827 51.6799C24.6297 51.372 24.6874 51.0647 24.7218 50.7551C24.8279 49.804 24.9233 48.8518 25.0261 47.8999C25.1205 47.0253 25.1774 46.1471 25.1336 45.2693C25.0767 44.1319 24.983 42.9962 24.8943 41.8605C24.8551 41.361 24.7862 40.8635 24.7365 40.3646C24.7243 40.2426 24.7348 40.1185 24.7348 39.9648C25.2703 39.9648 25.7956 39.9532 26.3201 39.9672C27.3733 39.9948 28.4273 40.0506 29.4513 40.3166C30.6559 40.6297 31.8029 41.0819 32.8042 41.8453C34.0051 42.7605 34.6733 43.9867 34.8883 45.4608C34.9572 45.9321 34.9561 46.4154 34.9688 46.894C34.9818 47.383 34.9721 47.3832 35.5101 47.3608C35.5242 47.2622 35.5542 47.1555 35.5522 47.0491C35.5297 45.9648 35.5015 44.8809 35.476 43.7968C35.4482 42.6216 35.4214 41.446 35.3949 40.2707C35.3943 40.2377 35.4065 40.2046 35.4147 40.1595C35.4686 40.1485 35.5232 40.1278 35.5777 40.1274C36.941 40.1134 38.3032 40.1287 39.649 40.3813C40.6445 40.5686 41.5635 40.9289 42.3246 41.6212C42.9502 42.1897 43.3116 42.8971 43.4315 43.7302C43.5109 44.2816 43.4616 44.8213 43.2724 45.3446C43.0538 45.9492 42.6331 46.3925 42.1103 46.7472C41.6132 47.0838 41.0689 47.3193 40.492 47.4847C40.3403 47.5284 40.1927 47.5866 39.9925 47.6557C40.4789 48.2821 40.9965 48.8216 41.5338 49.3402C42.0737 49.8611 42.6331 50.364 43.2842 50.7778C42.999 50.8135 42.7136 50.8496 42.4183 50.8866C42.5834 51.1241 43.1273 51.4814 43.6436 51.6915C43.6908 51.5684 43.7472 51.4479 43.7836 51.3221C44.1552 50.0279 44.5422 48.7377 44.8889 47.4367C45.4414 45.364 45.9667 43.2837 46.5039 41.2066C46.5296 41.1073 46.5717 41.0113 46.5896 40.9107C46.6206 40.7341 46.7238 40.6639 46.8967 40.653C47.5815 40.6098 48.2654 40.5565 48.9502 40.5149C49.7149 40.469 50.4803 40.4329 51.2454 40.391C51.7134 40.3654 52.1815 40.3361 52.6495 40.3096C52.6902 40.3075 52.7314 40.3162 52.8475 40.3265C52.2567 40.7504 51.724 41.1326 51.1784 41.5242C51.4204 42.0728 51.65 42.5935 51.8798 43.1136C53.1068 45.8919 54.335 48.6694 55.5584 51.449C55.6497 51.6568 55.7748 51.8139 55.9818 51.9169C56.4109 52.1308 56.8339 52.3568 57.3354 52.6173H51.5927C51.7806 52.4154 52.0344 52.3228 52.2607 52.194C52.4983 52.0587 52.7441 51.9369 53.0114 51.7957C52.985 51.7046 52.9653 51.6074 52.9288 51.5167C52.4806 50.3922 52.0304 49.269 51.5799 48.1457C51.4611 47.85 51.4607 47.8593 51.1371 47.8834C50.6126 47.9225 50.086 47.9394 49.5619 47.9829C48.9587 48.033 48.3569 48.1013 47.7549 48.1631C47.711 48.1677 47.6681 48.1838 47.6032 48.2003C47.2506 49.4827 46.8975 50.7676 46.5363 52.0824C46.97 52.254 47.3885 52.4202 47.8071 52.5858C45.4547 52.4562 43.1284 52.779 40.7827 52.8426C40.5535 52.349 40.3353 51.8594 40.1006 51.3778C39.5749 50.2994 39.044 49.2237 38.5058 48.1514C38.4418 48.024 38.4056 47.7999 38.1857 47.8671C37.9934 47.9259 38.0732 48.1202 38.0715 48.2569C38.0584 49.3197 38.0591 50.3824 38.0412 51.445C38.0372 51.6887 38.094 51.8462 38.3333 51.9576C38.5878 52.0758 38.8163 52.2503 39.0501 52.4337C37.5636 52.6141 36.0822 52.7543 34.5427 52.8549C35.0179 51.153 35.4019 49.4795 35.5179 47.7164C35.3551 47.6753 35.183 47.6318 34.9844 47.5815C34.9342 47.8641 34.8887 48.1307 34.8396 48.3963C34.545 49.9966 33.6007 51.0856 32.1489 51.7623C30.9363 52.3276 29.66 52.6967 28.3285 52.8177C27.4179 52.9007 26.4987 52.8859 25.5835 52.921C25.2755 52.9327 24.9686 52.9712 24.6603 52.9813C24.2739 52.9938 23.8868 52.9902 23.5 52.9929C23.4427 52.9931 23.3854 52.9889 23.328 52.9883C22.5142 52.9805 21.7003 52.9766 20.8862 52.9638C20.3371 52.9553 19.7883 52.927 19.2392 52.923C18.9081 52.9208 18.577 52.9515 18.2458 52.962C17.8677 52.9737 17.4896 52.9768 17.1117 52.9897C16.9782 52.994 16.8451 53.0164 16.6349 53.0384C17.3594 53.9043 18.0999 54.654 18.8702 55.3774C19.6369 56.097 20.4401 56.7706 21.3839 57.357C21.2361 57.3875 21.1506 57.4165 21.0636 57.422C20.1504 57.4786 19.2367 57.5281 18.3236 57.5862C17.7649 57.6219 17.2061 57.6621 16.6488 57.7147C16.4663 57.7321 16.3579 57.679 16.2496 57.5289C14.3378 54.8764 12.4149 52.2316 10.5052 49.5776C9.88396 48.7144 9.30958 47.8193 8.82524 46.8699C8.80487 46.8297 8.77479 46.7944 8.72986 46.7282C8.5193 46.7509 8.29731 46.7754 8.06543 46.8003C8.03973 47.065 8.00488 47.3007 7.99651 47.5373C7.98033 48.0054 7.97975 48.4741 7.97024 48.9421C7.94929 49.9691 7.92949 50.9964 7.90303 52.0232C7.89675 52.2707 7.95881 52.4494 8.19451 52.5883C8.49721 52.7667 8.76889 52.9976 9.04894 53.2437C8.23182 53.3971 7.41298 53.4733 6.59548 53.5576C5.7696 53.6432 4.94505 53.7466 4.06205 53.7895C4.60236 51.3869 5.06861 49.0208 5.20568 46.5747C4.4967 46.3747 3.78752 46.2156 3.13965 45.8794C3.8256 45.9771 4.51155 46.0748 5.24624 46.1794C5.24624 45.6841 5.25157 45.2414 5.24452 44.7991C5.23957 44.4919 5.22091 44.1846 5.20264 43.8776C5.13239 42.6945 5.06518 41.5109 4.98674 40.3284C4.92106 39.3391 4.84605 38.3507 4.76514 37.3628C4.71602 36.7618 4.64729 36.1622 4.59018 35.5618C4.58504 35.5077 4.60008 35.4521 4.60845 35.3701C4.69888 35.4001 4.77313 35.4185 4.84205 35.4491C5.90325 35.9172 7.02175 36.2131 8.1313 36.5353C9.02248 36.7941 9.90719 37.0704 10.7456 37.4713C11.7617 37.9569 12.6776 38.5718 13.2905 39.5466C13.8597 40.4523 14.0242 41.447 13.93 42.5009C13.8687 43.1852 13.6865 43.8254 13.3051 44.3993C12.7327 45.2608 11.906 45.7972 10.9638 46.1783C10.7835 46.2509 10.5987 46.3128 10.4184 46.3858C10.3378 46.4185 10.2638 46.4671 10.1343 46.5365C11.9797 48.1442 13.8226 49.6877 15.766 51.2067C15.8032 51.0778 15.8418 51.0004 15.8458 50.9213C15.8808 50.2262 15.9258 49.5313 15.9372 48.8364C15.9692 46.8948 15.9907 44.9532 16.0059 43.0117C16.009 42.6366 15.9496 42.2614 15.9465 41.8859C15.944 41.5857 15.8201 41.3542 15.6101 41.1642C15.3304 40.9115 15.0393 40.6711 14.7505 40.4287C14.639 40.335 14.5204 40.2498 14.3597 40.1261C14.821 40.1261 15.2261 40.1173 15.6309 40.1285C16.0307 40.1397 16.4312 40.1589 16.8293 40.1957C17.8709 40.2914 18.91 40.1735 19.9503 40.1688C20.8316 40.1644 21.7128 40.1285 22.5937 40.1005C22.902 40.0908 23.2096 40.0612 23.5179 40.043C23.6068 40.038 23.6964 40.0422 23.8105 40.0422C23.7347 40.9604 23.661 41.8502 23.5851 42.7685C23.3913 42.6121 23.2117 42.459 23.0238 42.317C22.5349 41.9474 22.0178 41.6392 21.3865 41.5798C20.7784 41.5227 20.1785 41.5823 19.5828 41.6984C19.3582 41.7419 19.1364 41.8016 18.9112 41.8394C18.7322 41.8696 18.6576 41.9717 18.6433 42.1409C18.626 42.3451 18.5902 42.5485 18.5839 42.7531C18.5521 43.7676 18.5277 44.7818 18.5005 45.7997C18.594 45.8289 18.6458 45.8585 18.6981 45.8596C19.7637 45.8813 20.826 45.8308 21.8861 45.7255C22.1351 45.7006 22.3202 45.6052 22.4788 45.3866C22.6465 45.1556 22.8915 44.9803 23.1266 44.7583C23.147 45.8333 23.1664 46.8515 23.1864 47.9125C23.0609 47.8741 22.9865 47.8582 22.9176 47.8293C21.6291 47.291 20.3034 47.199 18.9449 47.499C18.8666 47.5162 18.7905 47.5436 18.7122 47.5603C18.5791 47.5882 18.5178 47.6639 18.5239 47.8015C18.577 48.9973 18.6284 50.193 18.681 51.3885C18.6814 51.3987 18.6899 51.4088 18.7035 51.4384C18.7417 51.4511 18.7937 51.4833 18.8457 51.4837C19.8541 51.4881 20.8628 51.4938 21.871 51.486C22.0744 51.4841 22.2781 51.4321 22.4803 51.3962C23.0844 51.2885 23.5396 50.9858 23.7787 50.4025C23.7958 50.3605 23.8217 50.322 23.8451 50.2827C23.8501 50.2729 23.8615 50.267 23.9043 50.2304ZM32.5738 47.3715C31.9101 47.7193 31.2575 47.9764 30.5101 48.1472C30.6216 47.962 30.7035 47.8299 30.7825 47.6954C31.3618 46.7086 31.6552 45.6608 31.4054 44.5177C31.1966 43.5609 30.6742 42.8753 29.6524 42.6867C28.9784 42.5622 28.301 42.4567 27.6246 42.3474C27.5644 42.3375 27.4984 42.3631 27.4388 42.3719C27.517 43.1057 27.6075 43.8176 27.665 44.5327C27.723 45.2475 27.7771 45.9648 27.7798 46.6811C27.7821 47.4086 27.7411 48.1385 27.6789 48.8641C27.6183 49.5708 27.5066 50.2731 27.4137 51.008C27.5604 51.008 27.6857 51.0179 27.8089 51.0063C28.6095 50.9319 29.3954 50.7907 30.1386 50.4706C31.0839 50.0634 31.8408 49.4461 32.2842 48.4992C32.4411 48.1637 32.5881 47.8181 32.5738 47.3715ZM8.01669 46.0889C8.25581 46.0308 8.46523 45.99 8.66894 45.9289C9.7288 45.6116 10.4846 44.9953 10.735 43.8643C10.9372 42.9505 10.9766 42.0356 10.7959 41.1168C10.667 40.4625 10.4504 39.8386 10.037 39.302C9.73699 38.9126 9.3764 38.5913 8.86427 38.5348C8.41421 38.4847 8.26095 38.6336 8.26742 39.0177C8.27009 39.1775 8.26266 39.3372 8.25562 39.4968C8.21469 40.4183 8.16766 41.3398 8.13206 42.2616C8.10141 43.0588 8.0837 43.8567 8.0601 44.6545C8.04658 45.109 8.03268 45.5632 8.01669 46.0889ZM38.0629 46.2173C38.1235 46.2299 38.1469 46.242 38.1669 46.2378C39.1205 46.0412 39.9717 45.6464 40.6141 44.8979C41.3769 44.0089 40.9779 42.8005 40.1665 42.3723C39.6932 42.1225 39.1919 41.9897 38.6634 41.9419C38.45 41.9225 38.2337 41.8851 37.9816 42.0127C38.0089 43.4093 38.0359 44.8175 38.0629 46.2173ZM49.2573 42.3305C49.0385 42.7907 48.1216 46.2308 48.1412 46.4925C49.0454 46.5255 49.9499 46.4878 50.9054 46.4633C50.3489 45.0678 49.8139 43.7268 49.2573 42.3305Z" fill="white"/>
<path fill-rule="evenodd" clip-rule="evenodd" d="M78.2844 47.2986C78.8194 46.8128 79.1493 46.2564 79.5602 45.7276C79.5476 45.8403 79.5404 45.9536 79.5211 46.0653C79.3351 47.1369 78.9054 48.1178 78.3769 49.0586C78.0917 49.5656 77.8071 50.0717 77.5417 50.5907C76.9167 51.8143 75.9507 52.6407 74.5763 52.9291C74.2873 52.9896 73.9877 53.0259 73.6928 53.028C73.1325 53.0321 72.5703 53.0251 72.0117 52.9857C70.1781 52.8559 68.9343 51.9103 68.2855 50.2097C68.0462 49.5829 67.8893 48.9248 67.6953 48.2811C67.6767 48.2206 67.6607 48.1591 67.6249 48.0316C67.2967 48.4804 67.004 48.881 66.6623 49.3482C66.6252 49.0935 66.5911 48.9123 66.573 48.7292C66.467 47.6358 66.625 46.5699 66.9285 45.5215C67.2616 44.3691 67.7922 43.307 68.4797 42.3288C69.1371 41.3931 70.0445 40.7982 71.173 40.5714C72.6521 40.2743 74.0707 40.4316 75.3843 41.2126C76.3507 41.7872 77.0241 42.6297 77.4915 43.6353C77.999 44.7268 78.2376 45.8832 78.261 47.0847C78.2625 47.1299 78.2707 47.1747 78.2844 47.2986ZM69.2245 46.3407C69.2018 47.0492 69.3044 47.7009 69.5089 48.3348C69.8019 49.2434 70.298 50.0059 71.155 50.4839C71.6094 50.7376 72.1053 50.8558 72.6253 50.9133C73.2343 50.9805 73.8137 50.9046 74.3616 50.6425C75.3015 50.1937 75.8584 49.4159 76.1295 48.4426C76.4512 47.2868 76.3452 46.1382 75.9328 45.018C75.6964 44.375 75.332 43.8154 74.7949 43.3774C73.9519 42.6886 72.968 42.5015 71.922 42.6413C70.8627 42.7829 70.0852 43.3506 69.613 44.3197C69.2949 44.9729 69.1873 45.663 69.2245 46.3407Z" fill="white"/>
<path fill-rule="evenodd" clip-rule="evenodd" d="M65.8897 46.824C66.0564 48.7588 66.0595 50.6698 66.6154 52.5321C66.5318 52.5515 66.4812 52.5722 66.4294 52.5739C65.6633 52.5991 64.8966 52.6289 64.1303 52.6429C62.9507 52.6646 61.7713 52.691 60.5915 52.6855C59.7353 52.6815 58.9127 52.4872 58.134 52.1236C57.0176 51.6017 56.2104 50.77 55.7175 49.6522C55.1132 48.2813 54.9122 46.8433 55.1753 45.3676C55.4416 43.8746 56.2588 42.7019 57.4294 41.7546C58.4406 40.9363 59.6076 40.5382 60.8856 40.3688C61.8256 40.2441 62.7369 40.349 63.6418 40.5625C64.5882 40.7859 65.5258 41.0437 66.4667 41.2887C66.5322 41.3058 66.5935 41.3381 66.7058 41.3828C66.1452 42.2246 65.86 43.1525 65.7189 44.1837C65.5493 44.0416 65.4135 43.9269 65.2772 43.8137C64.4216 43.1019 63.479 42.5531 62.3782 42.317C61.4162 42.1106 60.4622 42.1466 59.5452 42.5197C58.0668 43.1214 57.438 44.4524 57.767 45.9631C57.9141 46.6394 58.2633 47.209 58.7404 47.7048C58.8478 47.8166 58.9588 47.9253 59.1147 48.0825C58.7604 48.0785 58.4996 47.9999 58.2563 47.8842C58.0223 47.773 57.8068 47.6246 57.5503 47.4733C57.6033 47.9804 57.7424 48.4324 57.9343 48.869C58.4952 50.1474 59.5147 50.7989 60.8662 51.0131C61.9032 51.1771 62.8913 51.0237 63.8587 50.6406C64.0822 50.552 64.164 50.4285 64.1951 50.1913C64.2606 49.6859 64.1557 49.1916 64.1475 48.6925C64.1446 48.5229 64.0292 48.3967 63.8752 48.3231C63.4427 48.1153 63.0158 47.8923 62.5715 47.7115C62.0108 47.4836 61.4347 47.2916 60.8653 47.0832C60.8045 47.061 60.7451 47.0354 60.6951 46.961C60.7577 46.961 60.8205 46.9621 60.883 46.9608C61.9244 46.9382 62.966 46.9185 64.0074 46.8904C64.5103 46.8767 65.0124 46.8456 65.5152 46.8242C65.6292 46.82 65.7433 46.824 65.8897 46.824Z" fill="white"/>
<path fill-rule="evenodd" clip-rule="evenodd" d="M71.1431 46.4058C72.1127 45.7854 72.3767 44.8101 72.64 43.7529C72.9643 44.7674 73.1594 45.76 74.0645 46.4067C73.2955 46.7752 73.0517 47.4616 72.8915 48.1848C72.7743 48.7131 72.7092 49.2531 72.614 49.8288C72.5719 49.4247 72.5422 49.0577 72.4938 48.6935C72.4316 48.2267 72.2876 47.7851 72.0695 47.3652C71.8635 46.9678 71.5516 46.6762 71.1431 46.4058Z" fill="white"/>
</svg>
